<svg id="Layer_1" data-name="Layer 1" xmlns="http://www.w3.org/2000/svg" xmlns:xlink="http://www.w3.org/1999/xlink" viewBox="0 0 444.83 458.15"><defs><style>.cls-1{fill:#cea28b;}.cls-2{fill:#d7df23;}.cls-3{fill:#414042;}.cls-19,.cls-4{fill:#231f20;}.cls-5{fill:#db9c94;}.cls-6{fill:#e0ada6;}.cls-7{clip-path:url(#clip-path);}.cls-8{fill:#926d5a;}.cls-9{fill:#efc7b0;}.cls-10{fill:#fff;}.cls-11{fill:#9e005d;}.cls-12{fill:#bfb437;}.cls-13{fill:#ec008c;}.cls-14{fill:#f9ed32;}.cls-15{fill:#b08874;}.cls-16{fill:#d1d3d4;}.cls-17{fill:#e4b69d;}.cls-18{fill:none;stroke:#bcbec0;stroke-miterlimit:10;stroke-width:0.75px;}.cls-19{font-size:24px;font-family:Raleway-SemiBold, Raleway;font-weight:600;}.cls-20{letter-spacing:-0.01em;}.cls-21{letter-spacing:-0.03em;}.cls-22{letter-spacing:0em;}.cls-23{letter-spacing:-0.03em;}.cls-24{letter-spacing:-0.02em;}.cls-25{letter-spacing:-0.03em;}.cls-26{letter-spacing:-0.03em;}.cls-27{letter-spacing:-0.05em;}</style><clipPath id="clip-path" transform="translate(-121.03 -111.44)"><rect id="SVGID" class="cls-1" x="198.33" y="308.01" width="22.66" height="33.84" rx="11.05"/></clipPath></defs><title>PageNotFound</title><rect class="cls-2" y="447.83" width="189.03" height="10.32" rx="5.16"/><rect class="cls-1" x="110.33" y="231.48" width="16" height="82.28" rx="8"/><rect class="cls-3" x="51.68" y="124.43" width="73.9" height="125.28" rx="32.15"/><rect class="cls-4" x="60.92" y="140.09" width="55.43" height="93.96" rx="24.12"/><rect class="cls-1" x="77.3" y="193.01" width="22.66" height="33.84" rx="11.05"/><rect class="cls-5" x="105.85" y="174.79" width="10.56" height="8.78" rx="4.39"/><rect class="cls-6" x="60.85" y="174.79" width="10.56" height="8.78" rx="4.39"/><rect id="SVGID-2" data-name="SVGID" class="cls-1" x="77.3" y="196.57" width="22.66" height="33.84" rx="11.05"/><g class="cls-7"><path class="cls-8" d="M210.28,322.15H209a24.08,24.08,0,0,1-24-24v6a24.08,24.08,0,0,0,24,24h1.24a24.09,24.09,0,0,0,24-24v-6A24.09,24.09,0,0,1,210.28,322.15Z" transform="translate(-121.03 -111.44)"/></g><rect class="cls-9" x="64" y="136.83" width="49.27" height="73.58" rx="24.01"/><polygon class="cls-3" points="115.3 134.56 115.3 169.01 94.6 169.01 86.56 161.45 86.56 169.01 85.79 169.01 74.6 157.82 74.6 169.01 61.97 169.01 61.97 134.56 115.3 134.56"/><rect class="cls-3" x="69.85" y="173.56" width="4.33" height="8.11" rx="2.17"/><rect class="cls-3" x="103.08" y="173.56" width="4.33" height="8.11" rx="2.17"/><rect class="cls-9" x="52.13" y="234.81" width="15" height="45.25" rx="6.39"/><path class="cls-10" d="M201.43,300.12v.48c0,6.58,3.61,12,8,12h.42c4.41,0,8-5.38,8-12v-.48Z" transform="translate(-121.03 -111.44)"/><path class="cls-11" d="M102.92,228.68h8.64a14.56,14.56,0,0,1,14.56,14.56v8.64a0,0,0,0,1,0,0H102.92a0,0,0,0,1,0,0V228.68A0,0,0,0,1,102.92,228.68Z"/><rect class="cls-12" x="102.92" y="251.88" width="23.21" height="3.13"/><path class="cls-11" d="M172.16,340.12h23.21a0,0,0,0,1,0,0v8.64a14.56,14.56,0,0,1-14.56,14.56h-8.64a0,0,0,0,1,0,0V340.12A0,0,0,0,1,172.16,340.12Z" transform="translate(246.5 592) rotate(180)"/><rect class="cls-12" x="172.16" y="363.32" width="23.21" height="3.13" transform="translate(246.5 618.33) rotate(180)"/><path class="cls-13" d="M86.09,220.7h5.08a19.14,19.14,0,0,1,19.14,19.14v35.5a0,0,0,0,1,0,0H66.95a0,0,0,0,1,0,0v-35.5A19.14,19.14,0,0,1,86.09,220.7Z"/><rect class="cls-14" x="75.55" y="217.13" width="26.17" height="7.14"/><path class="cls-13" d="M88.63,269.29h0a37.23,37.23,0,0,1,37.23,37.23v55.16a0,0,0,0,1,0,0H51.41a0,0,0,0,1,0,0V306.52A37.23,37.23,0,0,1,88.63,269.29Z"/><rect class="cls-14" x="66.13" y="270.79" width="45" height="4.56" rx="2.28"/><circle class="cls-15" cx="76.45" cy="248.46" r="5.63"/><rect class="cls-10" x="186.84" y="341.55" width="44.56" height="28.14" rx="9.17" transform="translate(-295.11 397.02) rotate(-81.29)"/><path class="cls-16" d="M222.88,343.89,219,369.38a9.19,9.19,0,0,1-10.28,7.92l-10.1-1.54a8.55,8.55,0,0,1-1.6-.42,8.52,8.52,0,0,0,3.7,1.53l10.1,1.55a9.21,9.21,0,0,0,10.28-7.92L225,345a9.29,9.29,0,0,0-5.82-10.21A9.45,9.45,0,0,1,222.88,343.89Z" transform="translate(-121.03 -111.44)"/><rect class="cls-9" x="184.64" y="354.38" width="15" height="45.25" rx="6.39" transform="translate(177.36 -144.02) rotate(41.55)"/><circle class="cls-9" cx="83.25" cy="252.68" r="11.27"/><rect class="cls-9" x="90.19" y="361.68" width="17.77" height="80.2"/><rect class="cls-17" x="90.19" y="361.68" width="17.77" height="9.54"/><path class="cls-13" d="M252.73,564.43H235.87a10.32,10.32,0,0,1-4.59-1.08L222.63,559a3.07,3.07,0,0,0-4.45,2.74v2.66h-7V553.32H229l27.76,6.24C260.35,561.36,257.81,564.43,252.73,564.43Z" transform="translate(-121.03 -111.44)"/><rect class="cls-13" x="90.19" y="441.84" width="6.96" height="0.04"/><rect class="cls-13" x="90.19" y="420.14" width="17.78" height="21.7"/><path class="cls-13" d="M221.89,530.64,213,547l-3.35-26.24a1.21,1.21,0,0,1,2.09-1Z" transform="translate(-121.03 -111.44)"/><path class="cls-13" d="M218.17,530.82l9.28,16.12,2.68-26.31a1.21,1.21,0,0,0-2.11-.93Z" transform="translate(-121.03 -111.44)"/><rect class="cls-9" x="190.32" y="473.12" width="17.77" height="80.2" transform="translate(277.39 915) rotate(180)"/><rect class="cls-17" x="190.32" y="473.12" width="17.77" height="9.54" transform="translate(277.39 844.33) rotate(180)"/><path class="cls-13" d="M166.59,564.43h16.86a10.32,10.32,0,0,0,4.59-1.08L196.7,559a3.06,3.06,0,0,1,4.44,2.74v2.66h7V553.32H190.32l-27.76,6.24C159,561.36,161.51,564.43,166.59,564.43Z" transform="translate(-121.03 -111.44)"/><rect class="cls-13" x="80.11" y="441.84" width="6.96" height="0.04"/><rect class="cls-13" x="190.32" y="531.58" width="17.78" height="21.7" transform="translate(277.4 973.42) rotate(180)"/><path class="cls-13" d="M197.44,530.64,206.31,547l3.34-26.24a1.21,1.21,0,0,0-2.08-1Z" transform="translate(-121.03 -111.44)"/><path class="cls-13" d="M201.16,530.82l-9.29,16.12-2.68-26.31a1.21,1.21,0,0,1,2.11-.93Z" transform="translate(-121.03 -111.44)"/><path class="cls-18" d="M548.7,111.82H285.43c-9.23,0-16.78,5.4-16.78,12V212c0,6.6,7.55,12,16.78,12h5.9l-23,44.13L392.21,224H548.7c9.23,0,16.78-5.4,16.78-12V123.82C565.48,117.22,557.93,111.82,548.7,111.82Z" transform="translate(-121.03 -111.44)"/><text class="cls-19" transform="translate(157.3 29.56)"><tspan xml:space="preserve">Sorry!  </tspan><tspan x="0" y="28.8">I ca</tspan><tspan class="cls-20" x="39.41" y="28.8">n</tspan><tspan x="53.47" y="28.8">’t find</tspan><tspan class="cls-21" x="116.16" y="28.8"> </tspan><tspan x="121.44" y="28.8">wh</tspan><tspan class="cls-22" x="155.68" y="28.8">a</tspan><tspan x="169.12" y="28.8">t</tspan><tspan class="cls-23" x="177.93" y="28.8"> </tspan><tspan class="cls-24" x="183.19" y="28.8">y</tspan><tspan x="195.88" y="28.8">ou a</tspan><tspan class="cls-25" x="244.41" y="28.8">r</tspan><tspan x="252.76" y="28.8">e </tspan><tspan x="0" y="57.6">looking </tspan><tspan class="cls-26" x="90.43" y="57.6">f</tspan><tspan x="98.35" y="57.6">o</tspan><tspan class="cls-27" x="112.8" y="57.6">r</tspan><tspan x="120.67" y="57.6">.</tspan></text></svg>